<svg id="logo" xmlns="http://www.w3.org/2000/svg" width="327" height="160" viewBox="0 0 327 160">
  <g id="background" transform="translate(0 0)" fill="#fff" stroke="#707070" stroke-width="1">
    <rect width="327" height="160" stroke="none"/>
    <rect x="0.5" y="0.5" width="326" height="159" fill="none"/>
  </g>
  <g id="agile_logo" transform="translate(13.186 0)">
    <g id="layer1" transform="translate(0 0)">
      <g id="image_group" transform="translate(0 15.909)">
        <g id="layer1-8">
          <path id="path6" d="M71.735,1.591c-1.1.142-3.023,1.473-6.841,4.457-7.242,5.662-7.2,5.46-1.928,9.553,8.355,6.484,9.123,6.872,10.08,5.091.618-1.15.053-1.988-2.932-4.338a19,19,0,0,1-2.734-2.373,31.822,31.822,0,0,1,4.145.78A48.827,48.827,0,0,1,96.563,28.914a47.8,47.8,0,0,1,11.348,18.521,45.907,45.907,0,0,1,2.4,15.7,43.123,43.123,0,0,1-2.348,15.183,49.679,49.679,0,0,1-32.053,31.665c-6.758,2.111-5.725,2.041-34.764,2.357-14.838.161-29.874.308-33.413.327L1.3,112.7l-.412.9c-.552,1.207.384,2.256,2.185,2.446,2.7.285,50.151.208,58.173-.094,6.986-.263,8.917-.46,11.98-1.222a53.838,53.838,0,0,0,32.336-22.7,53.042,53.042,0,0,0-.051-58.3,51.945,51.945,0,0,0-21.452-18.6,50.481,50.481,0,0,0-14.272-4.675,30.609,30.609,0,0,1-3.169-.644A27.238,27.238,0,0,1,69.78,7.088a23.052,23.052,0,0,0,3.484-3.152,2.249,2.249,0,0,0-.194-1.418c-.306-.669-.674-1.012-1.335-.927Zm-23.7,9.97A3.2,3.2,0,0,0,47,11.595c-3.5.633-11.518,4.233-15.807,7.1a53.072,53.072,0,0,0-18.3,20.988,50.26,50.26,0,0,0-5.3,25.242,48.551,48.551,0,0,0,5.677,22,48.746,48.746,0,0,0,10.417,13.973c1.983,1.934,3.9,3.516,4.261,3.516a2.308,2.308,0,0,0,1.98-1.778,11.9,11.9,0,0,0-2.563-3.1C19.153,91.48,14.33,82.831,12.174,72.3a61.8,61.8,0,0,1-.18-17.754A49.915,49.915,0,0,1,44.588,16.251c4.695-1.744,4.889-1.858,4.889-2.879a1.638,1.638,0,0,0-1.443-1.811ZM24.64,58.4a2.452,2.452,0,0,0-.48.978C24.338,59.055,24.492,58.727,24.64,58.4ZM32.921,82.16l-.112.276-.1.238c.051-.025.1-.064.15-.085.036-.261.061-.4.058-.429ZM111.943,104.2a2.119,2.119,0,0,0-1.125.381c-1.634,1.066-1.083,2.2,2.456,5.05l3.142,2.531-10.724.1c-9.342.083-10.808.172-11.38.687a2.173,2.173,0,0,0-.656,1.393c0,1.709.473,1.784,12.033,1.9l10.837.11-3.285,2.595c-3.482,2.75-3.948,3.615-2.69,5a2.214,2.214,0,0,0,.835.659c.538,0,3.738-2.264,8.072-5.709,5.583-4.439,5.636-4.6,2.412-7.27-2.2-1.821-8.78-6.83-9.67-7.358a.541.541,0,0,0-.255-.065Z" transform="translate(-0.73 -1.578)" fill="#803300"/>
          <path id="path1" d="M88.266,56.73a2.039,2.039,0,0,0-1.132.453c-.73.482-.731.5-.886,7.493l-.155,7.011h-3.1l-.155-7.011c-.155-6.993-.157-7.012-.886-7.493a1.628,1.628,0,0,0-2.381.137l-.761.621v14.6l-1.2.293a13.8,13.8,0,0,1-1.395.292,15.669,15.669,0,0,1-.2-3.482c0-2.743-.1-3.6-.483-4.045a2.511,2.511,0,0,0-2.978-.144c-.513.378-.567.9-.567,5.421,0,4.882-.016,5.011-.688,5.4-.561.321-1.718.394-6.25.394-6.129,0-6.694.129-6.694,1.537,0,1.326.566,1.5,4.989,1.5,3,0,4.055.083,4.169.326a2.654,2.654,0,0,1-.576,1.455l-.731,1.127-8.376.067c-7.854.063-8.409.1-8.922.561a1.53,1.53,0,0,0-.161,2.152c.326.32,1.666.38,8.56.38h8.172V88.8H49.419l-.647.672q-1.1,1.145.353,2.172c.564.4,1.468.442,8.929.442h8.3l.309.7c.17.382.407.894.528,1.137.2.408-.091.442-3.739.442-3.249,0-4.062.075-4.527.418a1.509,1.509,0,0,0,.053,2.363c.572.467,1.033.505,5.974.505h5.354l.844.784.843.784L72,103.933a30.584,30.584,0,0,0,.233,4.992,2.849,2.849,0,0,0,2.226.737c1.221-.316,1.406-.856,1.565-4.58l.155-3.617,1.317.482,1.316.482V109.6c0,6.863.028,7.192.632,7.721a2.154,2.154,0,0,0,2.777.048c.59-.481.62-.843.62-7.448v-6.941l1.7.016,1.705.017v6.846c0,6.681.016,6.86.674,7.431a2.056,2.056,0,0,0,2.734.079c.591-.482.619-.842.619-7.682v-7.177l1.317-.434c.724-.239,1.481-.487,1.681-.552.266-.087.39.877.464,3.589.1,3.544.134,3.73.833,4.191.93.613,1.316.606,2.325-.042l.817-.523V99.009l.852-.664c.848-.66.883-.664,6.533-.743,5.2-.072,5.717-.12,6.119-.569a1.463,1.463,0,0,0,0-2.052c-.387-.433-.945-.506-4.747-.617l-4.308-.126.575-1.074.575-1.075h8.22c9.435,0,10.022-.1,10.034-1.794.01-1.416-.363-1.478-9.3-1.552l-8.184-.068-.008-1.391-.008-1.39,8.455-.126c9.113-.136,9.037-.124,9.047-1.5a1.657,1.657,0,0,0-.507-1.074c-.473-.427-1.177-.462-9.159-.462h-8.646l-.721-1.328c-.4-.73-.606-1.386-.468-1.458a42.442,42.442,0,0,1,4.378-.2c3.732-.063,4.178-.119,4.669-.592a1.167,1.167,0,0,0-.077-1.984c-.575-.469-1.033-.506-6.406-.506-4.949,0-5.867-.06-6.351-.418-.512-.378-.567-.894-.567-5.4,0-4.575-.048-5.013-.591-5.413a2.459,2.459,0,0,0-1.62-.355c-1.561.123-1.808.779-1.813,4.821,0,1.912-.04,3.476-.082,3.476s-.774-.217-1.627-.481l-1.55-.48-.082-7.341-.082-7.341-.812-.521a2.376,2.376,0,0,0-1.188-.491ZM84.827,76.242a10.2,10.2,0,0,1,1.212.059c4.864.546,8.812,2.815,11.063,6.357A6.457,6.457,0,0,1,98.257,86.5a11.4,11.4,0,0,1-.2,3.429A12.284,12.284,0,0,1,90.731,97.4c-6.47,2.519-14.77.332-17.908-4.719a12.533,12.533,0,0,1-1.759-5.311c0-2.741,2.146-6.493,4.758-8.32a17.363,17.363,0,0,1,9.005-2.809Z" transform="translate(-23.281 -25.779)" fill="#ba8902"/>
        </g>
      </g>
      <g id="text_group" transform="translate(131.788)">
        <text id="text1-4" transform="translate(0 122.325)" fill="#707070" font-size="35" font-family="Avenir-Book, Avenir"><tspan x="0" y="0">Southwest</tspan></text>
        <text id="text1" transform="translate(0 72)" fill="#090657" font-size="72" font-family="Avenir-Book, Avenir"><tspan x="0" y="0">Agile</tspan></text>
      </g>
    </g>
  </g>
</svg>
